<?xml version="1.0" encoding="UTF-8"?>
<svg version="1.1" xmlns="http://www.w3.org/2000/svg" width="30" height="32">
<path d="M0 0 C9.9 0 19.8 0 30 0 C30 10.56 30 21.12 30 32 C20.1 32 10.2 32 0 32 C0 21.44 0 10.88 0 0 Z " fill="#F9FCFC" transform="translate(0,0)"/>
<path d="M0 0 C7.26 0 14.52 0 22 0 C22.53571429 14.19642857 22.53571429 14.19642857 20.3125 17.6875 C17.93384748 20.06615252 16.11355161 21.70901519 13 23 C8.13695335 23 5.36246689 20.2877454 2 17 C-0.84133039 11.45988088 -0.13405457 6.09948271 0 0 Z " fill="#F5FAF9" transform="translate(4,6)"/>
<path d="M0 0 C7.26 0 14.52 0 22 0 C22.53571429 14.19642857 22.53571429 14.19642857 20.3125 17.6875 C17.93384748 20.06615252 16.11355161 21.70901519 13 23 C8.13695335 23 5.36246689 20.2877454 2 17 C-0.84133039 11.45988088 -0.13405457 6.09948271 0 0 Z M2 2 C1.38156491 11.26361966 1.38156491 11.26361966 6 19 C8.80734473 21.2973659 8.80734473 21.2973659 11.9375 20.875 C15.42325789 19.87906918 16.76642934 18.81264453 19 16 C20.04976964 12.85069107 20.10131595 10.61185544 20.0625 7.3125 C20.041875 5.559375 20.02125 3.80625 20 2 C14.06 2 8.12 2 2 2 Z " fill="#47B1BF" transform="translate(4,6)"/>
<path d="M0 0 C3 1 3 1 5 3 C5.66 3 6.32 3 7 3 C7.25 5.3125 7.25 5.3125 7 8 C5.3125 9.875 5.3125 9.875 3 11 C-0.37036311 10.75925978 -1.58798021 10.41201979 -4 8 C-4.125 5.375 -4.125 5.375 -4 3 C-3.01 2.67 -2.02 2.34 -1 2 C-0.67 1.34 -0.34 0.68 0 0 Z " fill="#A6D7B6" transform="translate(14,11)"/>
<path d="M0 0 C0.66 0.33 1.32 0.66 2 1 C1.34 2.32 0.68 3.64 0 5 C-0.99 5 -1.98 5 -3 5 C-1.68 6.32 -0.36 7.64 1 9 C1.33 8.01 1.66 7.02 2 6 C2 6.99 2 7.98 2 9 C3.32 8.34 4.64 7.68 6 7 C5.67 7.99 5.34 8.98 5 10 C-0.44736842 11.33157895 -0.44736842 11.33157895 -2.875 9.875 C-4.32233508 7.46277487 -4.22417836 5.7648665 -4 3 C-3.01 2.67 -2.02 2.34 -1 2 C-0.67 1.34 -0.34 0.68 0 0 Z " fill="#45AD65" transform="translate(14,11)"/>
</svg>
